HIERARCHY
ROOT Hips
{
	OFFSET 0.000000 0.000000 0.000000
	CHANNELS 6 Xposition Yposition Zposition Xrotation Yrotation Zrotation
	JOINT LeftUpLeg_virtual
	{
		OFFSET 0.000000 0.000000 0.000000
		CHANNELS 3 Xrotation Yrotation Zrotation
		JOINT LeftUpLeg
		{
			OFFSET 13.026900 -6.336304 -1.092800
			CHANNELS 3 Xrotation Yrotation Zrotation
			JOINT LeftLeg
			{
				OFFSET 0.524474 -46.096886 9.782700
				CHANNELS 3 Xrotation Yrotation Zrotation
				JOINT LeftFoot
				{
					OFFSET -0.524474 -53.427422 -12.948200
					CHANNELS 3 Xrotation Yrotation Zrotation
					JOINT LeftToeBase
					{
						OFFSET 0.192200 -14.009700 16.364100
						CHANNELS 3 Xrotation Yrotation Zrotation
						JOINT LeftToe_End
						{
							OFFSET -1.784700 -0.561700 9.474800
							CHANNELS 3 Xrotation Yrotation Zrotation
							End Site
							{
								OFFSET 0 0 0
							}
						}
					}
				}
			}
		}
	}
	JOINT RightUpLeg_virtual
	{
		OFFSET 0.000000 0.000000 0.000000
		CHANNELS 3 Xrotation Yrotation Zrotation
		JOINT RightUpLeg
		{
			OFFSET -12.883000 -6.336304 -1.092800
			CHANNELS 3 Xrotation Yrotation Zrotation
			JOINT RightLeg
			{
				OFFSET -0.524587 -46.096825 9.782800
				CHANNELS 3 Xrotation Yrotation Zrotation
				JOINT RightFoot
				{
					OFFSET 0.524587 -53.427383 -12.948300
					CHANNELS 3 Xrotation Yrotation Zrotation
					JOINT RightToeBase
					{
						OFFSET -0.192200 -14.009700 16.364100
						CHANNELS 3 Xrotation Yrotation Zrotation
						JOINT RightToe_End
						{
							OFFSET 1.784700 -0.561700 9.474800
							CHANNELS 3 Xrotation Yrotation Zrotation
							End Site
							{
								OFFSET 0 0 0
							}
						}
					}
				}
			}
		}
	}
	JOINT Spine_virtual
	{
		OFFSET 0.000000 0.000000 0.000000
		CHANNELS 3 Xrotation Yrotation Zrotation
		JOINT Spine
		{
			OFFSET 0.072000 7.257294 -0.789700
			CHANNELS 3 Xrotation Yrotation Zrotation
			JOINT Spine1
			{
				OFFSET 0.000000 12.508769 -0.658067
				CHANNELS 3 Xrotation Yrotation Zrotation
				JOINT Spine1_split
				{
					OFFSET 0.000000 12.508769 -0.658067
					CHANNELS 3 Xrotation Yrotation Zrotation
					JOINT Spine2
					{
						OFFSET 0.000000 12.508769 -0.658067
						CHANNELS 3 Xrotation Yrotation Zrotation
						JOINT Neck_virtual
						{
							OFFSET 0.000000 0.000000 0.000000
							CHANNELS 3 Xrotation Yrotation Zrotation
							JOINT Neck
							{
								OFFSET 0.000000 14.033295 7.520400
								CHANNELS 3 Xrotation Yrotation Zrotation
								JOINT Head
								{
									OFFSET 0.000000 8.198502 5.703100
									CHANNELS 3 Xrotation Yrotation Zrotation
									JOINT HeadTop_End
									{
										OFFSET 0.000000 17.760803 13.332701
										CHANNELS 3 Xrotation Yrotation Zrotation
										End Site
										{
											OFFSET 0 0 0
										}
									}
								}
							}
						}
						JOINT LeftShoulder_virtual
						{
							OFFSET 0.000000 0.000000 0.000000
							CHANNELS 3 Xrotation Yrotation Zrotation
							JOINT LeftShoulder
							{
								OFFSET 6.292450 5.785301 -0.669000
								CHANNELS 3 Xrotation Yrotation Zrotation
								JOINT LeftShoulder_split
								{
									OFFSET 6.292450 5.785301 -0.669000
									CHANNELS 3 Xrotation Yrotation Zrotation
									JOINT LeftArm
									{
										OFFSET 13.907140 -6.093903 1.965100
										CHANNELS 3 Xrotation Yrotation Zrotation
										JOINT LeftForeArm
										{
											OFFSET 34.140198 0.000000 0.000000
											CHANNELS 3 Xrotation Yrotation Zrotation
											JOINT LeftHand
											{
												OFFSET 40.960209 0.000000 0.000000
												CHANNELS 3 Xrotation Yrotation Zrotation
												End Site
												{
													OFFSET 0 0 0
												}
											}
										}
									}
								}
							}
						}
						JOINT RightShoulder_virtual
						{
							OFFSET 0.000000 0.000000 0.000000
							CHANNELS 3 Xrotation Yrotation Zrotation
							JOINT RightShoulder
							{
								OFFSET -6.292450 5.785301 -0.669000
								CHANNELS 3 Xrotation Yrotation Zrotation
								JOINT RightShoulder_split
								{
									OFFSET -6.292450 5.785301 -0.669000
									CHANNELS 3 Xrotation Yrotation Zrotation
									JOINT RightArm
									{
										OFFSET -13.907140 -6.093903 1.965100
										CHANNELS 3 Xrotation Yrotation Zrotation
										JOINT RightForeArm
										{
											OFFSET -34.140198 0.000000 0.000000
											CHANNELS 3 Xrotation Yrotation Zrotation
											JOINT RightHand
											{
												OFFSET -40.960209 0.000000 0.000000
												CHANNELS 3 Xrotation Yrotation Zrotation
												End Site
												{
													OFFSET 0 0 0
												}
											}
										}
									}
								}
							}
						}
					}
				}
			}
		}
	}
}
MOTION
Frames: 9
Frame Time: 0.03333333
0.830261 103.028252 -2.669811 0.000000 0.000000 0.000000 34.049688 -24.213109 5.451537 -78.168681 3.122060 23.621639 91.393218 4.427090 -5.407290 13.029242 -5.009802 1.387116 -0.000098 -0.000044 -0.000015 0.000000 0.000000 0.000000 34.049688 -24.213109 5.451537 -49.888026 3.280345 8.506419 47.100660 4.289529 0.396801 -16.888539 -1.743859 -0.488586 -12.494193 0.075599 -0.006351 0.000000 0.000000 0.000000 34.049688 -24.213109 5.451537 11.510208 5.150321 -0.588193 5.818548 0.259713 -2.809618 0.000000 0.000000 0.000000 0.000000 0.000000 0.000000 -10.931795 0.793514 3.196297 0.763625 9.298924 -8.496117 -32.953132 4.763626 2.047907 0.000000 0.000000 0.000000 -10.931795 0.793514 3.196297 1.952252 -2.052958 14.106893 0.000000 0.000000 0.000000 -76.027362 17.447756 -39.907631 -79.531809 -83.559503 -82.553157 0.000000 0.000000 0.000000 -10.931795 0.793514 3.196297 4.985263 19.106686 8.633889 0.000000 0.000000 0.000000 -22.095484 5.720155 42.521329 29.456659 69.546871 -32.206183 0.000000 0.000000 0.000000 
-0.314234 104.952538 15.029984 0.000000 0.000000 0.000000 30.195180 -21.717987 5.060751 -83.794455 2.538650 21.797348 83.139098 5.735353 -4.198458 12.085508 -5.000151 -1.148020 -0.023416 0.036142 0.108010 0.000000 0.000000 0.000000 30.195180 -21.717987 5.060751 -34.880492 3.324040 2.612277 43.168110 3.127447 0.068713 -12.911912 -7.953118 5.465226 -20.116118 2.643294 0.164189 0.000000 0.000000 0.000000 30.195180 -21.717987 5.060751 15.382424 6.409345 -5.305647 4.029745 1.227231 -0.599439 0.000000 0.000000 0.000000 0.000000 0.000000 0.000000 -10.285320 0.762047 3.923220 -2.852092 7.836790 -6.163745 -28.170349 4.307468 0.283356 0.000000 0.000000 0.000000 -10.285320 0.762047 3.923220 1.718142 -1.109379 11.529364 0.000000 0.000000 0.000000 -73.265479 13.679091 -35.280546 149.353629 -84.574435 147.519450 0.000000 0.000000 0.000000 -10.285320 0.762047 3.923220 4.280024 20.150726 5.717932 0.000000 0.000000 0.000000 -22.945319 2.376927 38.931464 122.509838 76.439857 -127.618273 0.000000 0.000000 0.000000 
-1.544348 107.946365 32.287579 0.000000 0.000000 0.000000 26.273212 -19.080806 5.060418 -82.358687 4.612813 18.743636 67.498334 8.080893 -2.950264 10.464404 -4.769502 -3.810304 -0.046673 0.072333 0.216008 0.000000 0.000000 0.000000 26.273212 -19.080806 5.060418 -17.838178 3.155535 -2.648954 33.359119 0.797442 -0.238905 -2.521869 -11.999362 12.977711 -22.859991 5.094440 1.319302 0.000000 0.000000 0.000000 26.273212 -19.080806 5.060418 19.652978 7.814319 -10.643567 2.102506 2.546436 1.965312 0.000000 0.000000 0.000000 0.000000 0.000000 0.000000 -9.313782 0.947435 4.855494 -6.915199 5.019032 -4.501211 -23.038278 3.199300 -1.694707 0.000000 0.000000 0.000000 -9.313782 0.947435 4.855494 1.575013 -1.138138 7.901666 0.000000 0.000000 0.000000 -68.670237 12.567403 -29.970737 143.981754 -77.688566 143.278968 0.000000 0.000000 0.000000 -9.313782 0.947435 4.855494 3.699674 18.680748 1.234711 0.000000 0.000000 0.000000 -25.214263 8.862767 35.909327 144.796322 69.393117 -150.356724 0.000000 0.000000 0.000000 
-2.764110 110.736320 47.782818 0.000000 0.000000 0.000000 22.430573 -16.275388 5.454217 -73.836080 8.567430 14.257853 48.693429 9.998337 -1.304056 8.869016 -4.582556 -5.600399 -0.068272 -0.016378 0.476711 0.000000 0.000000 0.000000 22.430573 -16.275388 5.454217 -4.802897 4.357700 -7.591704 26.274182 -3.601072 -0.200376 15.696770 -7.144071 19.525730 -15.044600 7.443423 0.083497 0.000000 0.000000 0.000000 22.430573 -16.275388 5.454217 24.201720 8.913828 -15.543101 0.173435 3.894097 4.232962 0.000000 0.000000 0.000000 0.000000 0.000000 0.000000 -8.139765 1.210103 5.492466 -10.988659 1.368799 -3.315356 -18.012438 1.823732 -3.668780 0.000000 0.000000 0.000000 -8.139765 1.210103 5.492466 1.361027 -2.605523 3.314330 0.000000 0.000000 0.000000 -60.515859 16.225275 -25.721275 135.144035 -66.378353 136.245622 0.000000 0.000000 0.000000 -8.139765 1.210103 5.492466 2.965230 16.086093 -3.315620 0.000000 0.000000 0.000000 -24.438347 17.650208 34.902554 140.099174 71.704692 -145.080827 0.000000 0.000000 0.000000 
-3.793692 112.190414 61.130409 0.000000 0.000000 0.000000 18.843741 -13.567829 5.896158 -62.813336 13.950194 9.523997 36.211279 8.235444 0.439261 1.716765 -4.746130 -7.008420 -0.081502 -0.725328 1.495556 0.000000 0.000000 0.000000 18.843741 -13.567829 5.896158 4.106608 9.625625 -10.250865 26.327471 -8.816325 0.051256 29.596378 0.114282 23.307857 10.954300 5.448386 1.443146 0.000000 0.000000 0.000000 18.843741 -13.567829 5.896158 28.588069 9.733464 -18.736974 -1.519181 4.905838 5.559156 0.000000 0.000000 0.000000 0.000000 0.000000 0.000000 -6.863621 1.266538 5.371837 -14.654483 -2.540824 -2.074446 -13.492882 0.690550 -5.540202 0.000000 0.000000 0.000000 -6.863621 1.266538 5.371837 0.759125 -5.033631 -0.900612 0.000000 0.000000 0.000000 -46.886377 24.184105 -27.289602 137.352632 -57.102062 140.325731 0.000000 0.000000 0.000000 -6.863621 1.266538 5.371837 2.064618 19.145401 -0.105397 0.000000 0.000000 0.000000 -18.845790 15.314614 31.325795 112.202769 78.942247 -116.073246 0.000000 0.000000 0.000000 
-4.292537 112.105255 73.914734 0.000000 0.000000 0.000000 15.648211 -11.202381 5.965019 -52.137785 18.422852 4.790526 28.864700 5.532751 2.440626 -1.257006 -4.969112 -7.003058 -0.092688 -1.529254 2.631169 0.000000 0.000000 0.000000 15.648211 -11.202381 5.965019 7.236612 11.396222 -10.236369 34.604887 -12.569880 0.529574 31.972720 4.690573 18.890982 11.634992 1.748704 1.138911 0.000000 0.000000 0.000000 15.648211 -11.202381 5.965019 32.262354 10.313746 -18.513919 -2.669986 5.143535 5.015702 0.000000 0.000000 0.000000 0.000000 0.000000 0.000000 -5.566153 0.686415 3.800968 -17.496382 -6.211436 0.517927 -9.742676 0.605238 -7.531038 0.000000 0.000000 0.000000 -5.566153 0.686415 3.800968 -0.004798 -6.052264 -4.657573 0.000000 0.000000 0.000000 -30.554233 29.050529 -35.585654 132.991529 -49.805630 138.132885 0.000000 0.000000 0.000000 -5.566153 0.686415 3.800968 -0.565078 22.650664 11.650180 0.000000 0.000000 0.000000 -10.734379 7.165119 25.745474 60.814987 79.186604 -64.298820 0.000000 0.000000 0.000000 
-4.157697 109.980423 87.651192 0.000000 0.000000 0.000000 12.982270 -9.086812 5.364987 -43.894214 20.404722 0.496020 28.711933 3.814359 4.721287 -0.044789 -5.310503 -1.021437 -0.107644 -1.749868 3.050808 0.000000 0.000000 0.000000 12.982270 -9.086812 5.364987 3.688122 8.704338 -9.680448 50.423875 -15.276922 1.032414 20.623727 5.905228 14.547444 3.629385 -0.521559 1.001888 0.000000 0.000000 0.000000 12.982270 -9.086812 5.364987 34.773845 10.287898 -13.873186 -3.109720 4.168119 2.112319 0.000000 0.000000 0.000000 0.000000 0.000000 0.000000 -4.511055 -0.921671 0.515201 -18.930486 -9.099433 5.428774 -6.911723 2.042706 -9.763905 0.000000 0.000000 0.000000 -4.511055 -0.921671 0.515201 -0.564034 -5.116501 -8.998655 0.000000 0.000000 0.000000 -18.809501 24.062615 -46.559368 128.176054 -48.511893 133.177337 0.000000 0.000000 0.000000 -4.511055 -0.921671 0.515201 -1.957628 20.206859 20.486770 0.000000 0.000000 0.000000 -0.270055 0.314879 26.820985 50.522015 66.832035 -53.604595 0.000000 0.000000 0.000000 
-4.598141 104.937088 100.735886 0.000000 0.000000 0.000000 11.587144 -5.906624 6.591323 -41.801690 18.985399 -3.695593 41.663249 3.767171 6.659420 -11.470896 -4.308558 0.288823 -0.811469 -0.583071 0.961635 0.000000 0.000000 0.000000 11.587144 -5.906624 6.591323 -13.558917 7.701440 -10.908088 76.286376 -14.299275 0.392359 13.080515 8.339548 19.502446 -0.287602 -0.110313 0.122906 0.000000 0.000000 0.000000 11.587144 -5.906624 6.591323 35.067093 8.147556 -12.601917 -2.815403 2.116008 0.753812 0.000000 0.000000 0.000000 0.000000 0.000000 0.000000 -3.921085 -3.016751 -0.561650 -20.673642 -8.726410 6.303366 -4.680589 2.383479 -8.269328 0.000000 0.000000 0.000000 -3.921085 -3.016751 -0.561650 -0.580709 -4.662475 -11.140314 0.000000 0.000000 0.000000 -20.396417 17.905411 -50.557409 131.360766 -52.089744 133.896570 0.000000 0.000000 0.000000 -3.921085 -3.016751 -0.561650 -1.234238 14.861595 24.592311 0.000000 0.000000 0.000000 9.985906 -7.632390 32.098829 47.769394 63.135380 -50.883096 0.000000 0.000000 0.000000 
-5.342190 99.955963 114.962349 0.000000 0.000000 0.000000 10.688272 -1.718033 8.468378 -35.911697 16.956249 -8.212548 50.720862 4.433275 7.586415 -24.708095 -3.822009 -1.983358 -0.864396 -0.548708 1.022756 0.000000 0.000000 0.000000 10.688272 -1.718033 8.468378 -36.383858 9.908959 -11.979151 93.108893 -12.883855 -0.551261 20.267196 8.583854 18.318002 0.025363 0.097900 -0.109568 0.000000 0.000000 0.000000 10.688272 -1.718033 8.468378 34.381400 4.977810 -12.809646 -2.365442 -0.366307 0.970297 0.000000 0.000000 0.000000 0.000000 0.000000 0.000000 -3.299706 -5.304175 0.161977 -24.531077 -6.192881 3.857605 -1.793799 2.074539 -4.457145 0.000000 0.000000 0.000000 -3.299706 -5.304175 0.161977 -0.502871 -4.601479 -11.307645 0.000000 0.000000 0.000000 -24.275452 13.952415 -52.002181 136.801381 -54.495948 137.338288 0.000000 0.000000 0.000000 -3.299706 -5.304175 0.161977 -0.426694 10.074954 25.036040 0.000000 0.000000 0.000000 17.467712 -17.717485 37.950423 29.398056 72.463137 -34.413174 0.000000 0.000000 0.000000 
